# xmcd
#
# Track frame offsets: 
#        150
#        8237
#        10804
#        15329
#        17919
#        22336
#        27327
#        34956
#        37445
#        41947
#        46769
#        55274
#        63767
#        68097
#        76609
#        79708
#        85177
#        87897
#        92548
#        95313
#        100331
#        101774
#        103206
#        104592
#        105984
#        107373
#        108755
#        110137
#        111615
#        113030
#        114386
#        116557
#        120244
#        126248
#        132286
#        134932
#        141592
#        147478
#        157813
#        160665
#        165681
#        169477
#        176178
#        178755
#        183271
#        186660
#        192571
#        199499
#        210874
#        213289
#        219520
#        221745
#        227638
#        230285
#        239124
#        244726
#        250325
#        251172
#        251992
#        252919
#        253775
#        254712
#        255604
#        256318
#        257165
#        257902
#        258819
#        263102
#        270972
#        273577
#        280449
#        283227
#        290410
#        294137
#
# Disc length: 4014 seconds
#
# Revision: 0
# Processed by: cddbd v1.5.2PL0 Copyright (c) Steve Scherf et al.
# Submitted via: ExactAudioCopy v1.0b2
#
DISCID=640fac4a
DTITLE=Marcos Ottaviano - Guitarra Blues do Tradicional ao Moderno
DYEAR=2011
DGENRE=Blues
TTITLE0=Apresentação and Afinação
TTITLE1=Guitarra Base - Shuffle Blues 1
TTITLE2=Guitarra Base - Shuffle Blues 1 (Playback)
TTITLE3=Guitarra Base - Shuffle Blues 2
TTITLE4=Guitarra Base - Shuffle Blues 2 (Playback)
TTITLE5=Blues 12 compassos - Acorde-Melodia (E)
TTITLE6=Blues 12 compassos - Acorde-Melodia (A)
TTITLE7=Blues Britânico Shuffle (G)
TTITLE8=Blues Britânico Shuffle (G) - (Playback)
TTITLE9=Chicago Blues Base (E)
TTITLE10=Chicago Blues Base (B)
TTITLE11=Chicago Blues Base (B) - (Playback)
TTITLE12=Hooker Boogie
TTITLE13=Hooker Boogie (Playback)
TTITLE14=Shuffle Blues Menor 16 compassos
TTITLE15=Shuffle Blues Menor 16 compassos - (Playback)
TTITLE16=Shuffle Blues (A) Chorus 1
TTITLE17=Shuffle Blues (A) Chorus 1 - (Playback)
TTITLE18=Shuffle Blues (A) Chorus 2
TTITLE19=Shuffle Blues (A) Chorus 2 - (Playback)
TTITLE20=Turnaround Lick 01
TTITLE21=Turnaround Lick 02
TTITLE22=Turnaround Lick 03
TTITLE23=Turnaround Lick 04
TTITLE24=Turnaround Lick 05
TTITLE25=Turnaround Lick 06
TTITLE26=Turnaround Lick 07
TTITLE27=Turnaround Lick 08
TTITLE28=Turnaround Lick 09
TTITLE29=Turnaround Lick 10
TTITLE30=Blues 8 compassos
TTITLE31=Blues 8 compassos - (Playback)
TTITLE32=Slow Blues Britânico (E)
TTITLE33=Slow Blues Britânico (E) - (Playback)
TTITLE34=Texas Shuffle (E)
TTITLE35=Texas Shuffle (E) - (Playback)
TTITLE36=Slow Blues (A)
TTITLE37=Slow Blues (A) - (Playback)
TTITLE38=Funk Blues
TTITLE39=Funk Blues - (Playback)
TTITLE40=Tradicional Blues 8 compassos
TTITLE41=Tradicional Blues 8 compassos - (Playback)
TTITLE42=Tradicional Solo Freddie King
TTITLE43=Tradicional Solo Freddie King - (Playback)
TTITLE44=R&B (Rithm and Blues)
TTITLE45=R&B (Rithm and Blues) - (Playback)
TTITLE46=Slow Blues Licks (começando no V)
TTITLE47=Slow Blues Licks (começando no V) - (Playback)
TTITLE48=Shuffle Blues Moderno
TTITLE49=Shuffle Blues Moderno - (Playback)
TTITLE50=Rumba Blues (E)
TTITLE51=Rumba Blues (E) - (Playback)
TTITLE52=Gospel Blues - Estilo Ray Charles
TTITLE53=Gospel Blues - Estilo Ray Charles - (Playback)
TTITLE54=Blues C13
TTITLE55=Blues C13 - (Playback)
TTITLE56=Slide Licks 01
TTITLE57=Slide Licks 02
TTITLE58=Slide Licks 03
TTITLE59=Slide Licks 04
TTITLE60=Slide Licks 05
TTITLE61=Slide Licks 06
TTITLE62=Slide Licks 07
TTITLE63=Slide Licks 08
TTITLE64=Slide Licks 09
TTITLE65=Slide Licks 10
TTITLE66=Slow Blues Estilo Muddy Waters
TTITLE67=Slow Blues Estilo Muddy Waters - (Playback)
TTITLE68=Blues 12 compassos estilo Duane Allman
TTITLE69=Blues 12 compassos estilo Duane Allman - (Playback)
TTITLE70=Country Blues 12 compassos
TTITLE71=Country Blues 12 compassos - (Playback)
TTITLE72=Blues 12 compassos estilo Mick Taylor
TTITLE73=Blues 12 compassos estilo Mick Taylor - (Playback)
EXTD=
EXTT0=
EXTT1=
EXTT2=
EXTT3=
EXTT4=
EXTT5=
EXTT6=
EXTT7=
EXTT8=
EXTT9=
EXTT10=
EXTT11=
EXTT12=
EXTT13=
EXTT14=
EXTT15=
EXTT16=
EXTT17=
EXTT18=
EXTT19=
EXTT20=
EXTT21=
EXTT22=
EXTT23=
EXTT24=
EXTT25=
EXTT26=
EXTT27=
EXTT28=
EXTT29=
EXTT30=
EXTT31=
EXTT32=
EXTT33=
EXTT34=
EXTT35=
EXTT36=
EXTT37=
EXTT38=
EXTT39=
EXTT40=
EXTT41=
EXTT42=
EXTT43=
EXTT44=
EXTT45=
EXTT46=
EXTT47=
EXTT48=
EXTT49=
EXTT50=
EXTT51=
EXTT52=
EXTT53=
EXTT54=
EXTT55=
EXTT56=
EXTT57=
EXTT58=
EXTT59=
EXTT60=
EXTT61=
EXTT62=
EXTT63=
EXTT64=
EXTT65=
EXTT66=
EXTT67=
EXTT68=
EXTT69=
EXTT70=
EXTT71=
EXTT72=
EXTT73=
PLAYORDER=
